<svg xmlns="http://www.w3.org/2000/svg" xmlns:xlink="http://www.w3.org/1999/xlink" width="500" zoomAndPan="magnify" viewBox="0 0 375 374.999991" height="500" preserveAspectRatio="xMidYMid meet" version="1.0"><defs><g/><clipPath id="57ab0b8f70"><path d="M 169 69 L 313 69 L 313 90.65625 L 169 90.65625 Z M 169 69 " clip-rule="nonzero"/></clipPath><clipPath id="3f5f423073"><path d="M 138 58.132812 L 282 58.132812 L 282 79.882812 L 138 79.882812 Z M 138 58.132812 " clip-rule="nonzero"/></clipPath><clipPath id="8493708ec1"><path d="M 23 284.585938 L 168 284.585938 L 168 306 L 23 306 Z M 23 284.585938 " clip-rule="nonzero"/></clipPath><clipPath id="fb08b15827"><path d="M 51 295.359375 L 195 295.359375 L 195 317 L 51 317 Z M 51 295.359375 " clip-rule="nonzero"/></clipPath></defs><rect x="-37.5" width="450" fill="#ffffff" y="-37.499999" height="449.999989" fill-opacity="1"/><rect x="-37.5" width="450" fill="#ffffff" y="-37.499999" height="449.999989" fill-opacity="1"/><rect x="-37.5" width="450" fill="#000000" y="-37.499999" height="449.999989" fill-opacity="1"/><g fill="#b27409" fill-opacity="1"><g transform="translate(45.49223, 274.267864)"><g><path d="M 10.5625 0 L 10.5625 -2.453125 L 19.421875 -2.453125 C 25.804688 -2.453125 30.269531 -3.800781 32.8125 -6.5 C 35.351562 -9.207031 36.625 -14.332031 36.625 -21.875 L 36.625 -154.109375 C 36.625 -161.316406 35.351562 -166.269531 32.8125 -168.96875 C 30.269531 -171.675781 25.804688 -173.03125 19.421875 -173.03125 L 10.5625 -173.03125 L 10.5625 -175.484375 L 48.671875 -175.484375 L 147.21875 -25.3125 L 147.21875 -153.609375 C 147.21875 -161.148438 145.988281 -166.269531 143.53125 -168.96875 C 141.070312 -171.675781 136.566406 -173.03125 130.015625 -173.03125 L 121.65625 -173.03125 L 121.65625 -175.484375 L 175.484375 -175.484375 L 175.484375 -173.03125 L 167.125 -173.03125 C 160.570312 -173.03125 156.023438 -171.675781 153.484375 -168.96875 C 150.953125 -166.269531 149.6875 -161.148438 149.6875 -153.609375 L 149.6875 0 L 144.765625 0 L 39.078125 -160.25 L 39.078125 -21.875 C 39.078125 -14.332031 40.304688 -9.207031 42.765625 -6.5 C 45.222656 -3.800781 49.726562 -2.453125 56.28125 -2.453125 L 64.640625 -2.453125 L 64.640625 0 Z M 10.5625 0 "/></g></g></g><g fill="#b27409" fill-opacity="1"><g transform="translate(148.725024, 274.267864)"><g><path d="M 9.34375 0 L 9.34375 -2.453125 L 12.53125 -2.453125 C 25.96875 -2.453125 32.6875 -8.351562 32.6875 -20.15625 L 32.6875 -156.3125 C 32.6875 -167.457031 25.96875 -173.03125 12.53125 -173.03125 L 9.34375 -173.03125 L 9.34375 -175.484375 L 75.453125 -175.484375 C 96.753906 -175.484375 112.609375 -171.507812 123.015625 -163.5625 C 133.421875 -155.613281 138.625 -144.269531 138.625 -129.53125 C 138.625 -119.863281 136.695312 -112 132.84375 -105.9375 C 128.988281 -99.875 124.070312 -95.117188 118.09375 -91.671875 C 112.113281 -88.234375 105.929688 -85.613281 99.546875 -83.8125 L 134.203125 -29.734375 C 140.921875 -19.253906 146.242188 -12.085938 150.171875 -8.234375 C 154.109375 -4.378906 158.039062 -2.453125 161.96875 -2.453125 L 162.703125 -2.453125 L 162.703125 0 L 159.265625 0 C 151.566406 0 145.21875 -0.285156 140.21875 -0.859375 C 135.21875 -1.429688 131.078125 -2.453125 127.796875 -3.921875 C 124.523438 -5.398438 121.617188 -7.570312 119.078125 -10.4375 C 116.535156 -13.3125 113.789062 -17.039062 110.84375 -21.625 L 73 -81.84375 L 57.515625 -81.84375 L 57.515625 -20.15625 C 57.515625 -8.351562 64.234375 -2.453125 77.671875 -2.453125 L 80.859375 -2.453125 L 80.859375 0 Z M 57.515625 -84.296875 L 74.71875 -84.296875 C 88.320312 -84.296875 97.988281 -87.613281 103.71875 -94.25 C 109.457031 -100.894531 112.328125 -112.082031 112.328125 -127.8125 C 112.328125 -144.03125 109.375 -155.617188 103.46875 -162.578125 C 97.570312 -169.546875 87.820312 -173.03125 74.21875 -173.03125 L 57.515625 -173.03125 Z M 57.515625 -84.296875 "/></g></g></g><g clip-path="url(#57ab0b8f70)"><path fill="#f39200" d="M 170.054688 90.292969 C 178.921875 85.660156 189.269531 84.59375 199.101562 84.351562 C 209.691406 84.078125 220.25 84.777344 230.777344 85.753906 C 241.425781 86.757812 252.046875 88.007812 262.726562 88.769531 C 268.035156 89.132812 273.375 89.347656 278.714844 89.378906 C 283.722656 89.40625 288.789062 89.4375 293.796875 88.828125 C 298.835938 88.21875 303.871094 86.789062 307.734375 83.285156 C 311.113281 80.207031 313.554688 75.515625 312.621094 70.855469 C 312.230469 68.90625 309.210938 69.363281 309.210938 71.3125 C 309.242188 75.457031 307.644531 78.960938 304.476562 81.578125 C 300.917969 84.535156 296.148438 85.570312 291.714844 86.117188 C 281.640625 87.304688 271.382812 86.910156 261.277344 86.210938 C 240.765625 84.746094 220.3125 81.367188 199.707031 82.097656 C 189.207031 82.433594 178.589844 83.652344 169.449219 89.253906 C 168.785156 89.652344 169.359375 90.65625 170.054688 90.292969 Z M 170.054688 90.292969 " fill-opacity="1" fill-rule="nonzero"/></g><path fill="#f39200" d="M 174.035156 83.527344 C 183.023438 80.207031 192.316406 79.417969 201.820312 79.355469 C 202.332031 79.355469 202.511719 78.472656 201.9375 78.410156 C 192.4375 76.980469 182.542969 79.265625 173.824219 83.132812 C 173.644531 83.222656 173.792969 83.621094 174.035156 83.527344 Z M 174.035156 83.527344 " fill-opacity="1" fill-rule="nonzero"/><path fill="#f39200" d="M 304.203125 88.859375 C 307.671875 88.371094 310.871094 86.695312 313.285156 84.167969 C 314.519531 82.890625 315.578125 81.425781 316.300781 79.8125 C 316.90625 78.53125 318.019531 76.25 317.117188 74.9375 C 316.695312 74.328125 315.96875 74.238281 315.425781 74.726562 C 314.402344 75.609375 314.550781 77.617188 314.128906 78.898438 C 313.648438 80.359375 312.953125 81.730469 312.078125 82.980469 C 310.117188 85.691406 307.3125 87.671875 304.113281 88.554688 C 303.902344 88.585938 303.992188 88.890625 304.203125 88.859375 Z M 304.203125 88.859375 " fill-opacity="1" fill-rule="nonzero"/><g clip-path="url(#3f5f423073)"><path fill="#f39200" d="M 139.066406 79.519531 C 147.9375 74.886719 158.285156 73.820312 168.117188 73.578125 C 178.707031 73.304688 189.265625 74.003906 199.792969 74.980469 C 210.441406 75.984375 221.0625 77.234375 231.742188 77.996094 C 237.050781 78.359375 242.390625 78.574219 247.730469 78.605469 C 252.738281 78.636719 257.804688 78.664062 262.8125 78.054688 C 267.851562 77.445312 272.886719 76.015625 276.75 72.511719 C 280.128906 69.4375 282.570312 64.746094 281.636719 60.082031 C 281.246094 58.132812 278.226562 58.589844 278.226562 60.539062 C 278.257812 64.683594 276.660156 68.1875 273.492188 70.804688 C 269.933594 73.761719 265.164062 74.796875 260.730469 75.34375 C 250.65625 76.535156 240.398438 76.136719 230.292969 75.4375 C 209.777344 73.972656 189.324219 70.59375 168.722656 71.324219 C 158.222656 71.660156 147.605469 72.878906 138.464844 78.484375 C 137.800781 78.878906 138.375 79.882812 139.066406 79.519531 Z M 139.066406 79.519531 " fill-opacity="1" fill-rule="nonzero"/></g><path fill="#f39200" d="M 143.050781 72.757812 C 152.039062 69.4375 161.332031 68.644531 170.832031 68.582031 C 171.347656 68.582031 171.527344 67.699219 170.953125 67.636719 C 161.453125 66.207031 151.558594 68.492188 142.839844 72.359375 C 142.65625 72.453125 142.808594 72.847656 143.050781 72.757812 Z M 143.050781 72.757812 " fill-opacity="1" fill-rule="nonzero"/><path fill="#f39200" d="M 273.21875 78.085938 C 276.6875 77.597656 279.886719 75.925781 282.300781 73.394531 C 283.535156 72.117188 284.59375 70.652344 285.316406 69.039062 C 285.921875 67.761719 287.035156 65.476562 286.132812 64.164062 C 285.707031 63.554688 284.984375 63.464844 284.441406 63.953125 C 283.417969 64.835938 283.566406 66.847656 283.144531 68.125 C 282.660156 69.585938 281.96875 70.957031 281.09375 72.207031 C 279.132812 74.917969 276.328125 76.898438 273.128906 77.78125 C 272.917969 77.8125 273.007812 78.117188 273.21875 78.085938 Z M 273.21875 78.085938 " fill-opacity="1" fill-rule="nonzero"/><g clip-path="url(#8493708ec1)"><path fill="#f39200" d="M 166.753906 284.953125 C 157.882812 289.582031 147.539062 290.648438 137.703125 290.894531 C 127.113281 291.167969 116.554688 290.464844 106.027344 289.492188 C 95.378906 288.488281 84.761719 287.238281 74.082031 286.476562 C 68.773438 286.109375 63.433594 285.898438 58.09375 285.867188 C 53.085938 285.835938 48.015625 285.804688 43.007812 286.414062 C 37.972656 287.023438 32.933594 288.457031 29.074219 291.960938 C 25.695312 295.035156 23.25 299.726562 24.1875 304.386719 C 24.578125 306.335938 27.59375 305.878906 27.59375 303.929688 C 27.5625 299.789062 29.164062 296.285156 32.332031 293.664062 C 35.890625 290.710938 40.65625 289.675781 45.089844 289.125 C 55.167969 287.9375 65.421875 288.335938 75.53125 289.035156 C 96.042969 290.496094 116.496094 293.878906 137.101562 293.148438 C 147.597656 292.8125 158.214844 291.59375 167.355469 285.988281 C 168.019531 285.59375 167.449219 284.585938 166.753906 284.953125 Z M 166.753906 284.953125 " fill-opacity="1" fill-rule="nonzero"/></g><path fill="#f39200" d="M 162.773438 291.714844 C 153.78125 295.035156 144.492188 295.828125 134.988281 295.890625 C 134.476562 295.890625 134.292969 296.773438 134.867188 296.832031 C 144.371094 298.265625 154.265625 295.980469 162.984375 292.113281 C 163.164062 292.019531 163.011719 291.625 162.773438 291.714844 Z M 162.773438 291.714844 " fill-opacity="1" fill-rule="nonzero"/><path fill="#f39200" d="M 32.601562 286.386719 C 29.132812 286.871094 25.933594 288.546875 23.523438 291.074219 C 22.285156 292.355469 21.230469 293.816406 20.503906 295.433594 C 19.902344 296.710938 18.785156 298.996094 19.691406 300.304688 C 20.113281 300.914062 20.835938 301.007812 21.378906 300.519531 C 22.40625 299.636719 22.253906 297.625 22.675781 296.347656 C 23.160156 294.882812 23.855469 293.511719 24.730469 292.265625 C 26.691406 289.554688 29.496094 287.574219 32.691406 286.691406 C 32.902344 286.660156 32.8125 286.355469 32.601562 286.386719 Z M 32.601562 286.386719 " fill-opacity="1" fill-rule="nonzero"/><g clip-path="url(#fb08b15827)"><path fill="#f39200" d="M 193.84375 295.726562 C 184.972656 300.355469 174.625 301.421875 164.792969 301.664062 C 154.203125 301.941406 143.644531 301.238281 133.117188 300.265625 C 122.46875 299.257812 111.847656 298.011719 101.171875 297.25 C 95.859375 296.882812 90.523438 296.671875 85.183594 296.640625 C 80.175781 296.609375 75.105469 296.578125 70.097656 297.1875 C 65.0625 297.796875 60.023438 299.230469 56.160156 302.730469 C 52.78125 305.808594 50.339844 310.5 51.273438 315.160156 C 51.667969 317.109375 54.683594 316.652344 54.683594 314.703125 C 54.652344 310.5625 56.253906 307.058594 59.417969 304.4375 C 62.980469 301.484375 67.746094 300.449219 72.179688 299.898438 C 82.257812 298.710938 92.511719 299.105469 102.617188 299.808594 C 123.132812 301.269531 143.585938 304.652344 164.1875 303.921875 C 174.6875 303.585938 185.304688 302.367188 194.445312 296.761719 C 195.109375 296.367188 194.535156 295.359375 193.84375 295.726562 Z M 193.84375 295.726562 " fill-opacity="1" fill-rule="nonzero"/></g><path fill="#f39200" d="M 189.859375 302.488281 C 180.871094 305.808594 171.578125 306.601562 162.078125 306.660156 C 161.5625 306.660156 161.382812 307.546875 161.957031 307.605469 C 171.457031 309.039062 181.355469 306.753906 190.070312 302.882812 C 190.253906 302.792969 190.101562 302.398438 189.859375 302.488281 Z M 189.859375 302.488281 " fill-opacity="1" fill-rule="nonzero"/><path fill="#f39200" d="M 59.691406 297.15625 C 56.222656 297.644531 53.023438 299.320312 50.609375 301.847656 C 49.375 303.128906 48.316406 304.589844 47.59375 306.203125 C 46.992188 307.484375 45.875 309.769531 46.78125 311.078125 C 47.203125 311.6875 47.925781 311.78125 48.46875 311.292969 C 49.496094 310.410156 49.34375 308.398438 49.765625 307.117188 C 50.25 305.65625 50.941406 304.285156 51.816406 303.035156 C 53.777344 300.324219 56.582031 298.34375 59.78125 297.460938 C 59.992188 297.433594 59.902344 297.128906 59.691406 297.15625 Z M 59.691406 297.15625 " fill-opacity="1" fill-rule="nonzero"/></svg>