<svg xmlns="http://www.w3.org/2000/svg" xmlns:xlink="http://www.w3.org/1999/xlink" width="500" zoomAndPan="magnify" viewBox="0 0 375 374.999991" height="500" preserveAspectRatio="xMidYMid meet" version="1.0"><defs><g/><clipPath id="27f38e0595"><path d="M 163.257812 95.253906 L 209 95.253906 L 209 233.964844 L 163.257812 233.964844 Z M 163.257812 95.253906 " clip-rule="nonzero"/></clipPath></defs><rect x="-37.5" width="450" fill="#ffffff" y="-37.499999" height="449.999989" fill-opacity="1"/><rect x="-37.5" width="450" fill="#8f6e5d" y="-37.499999" height="449.999989" fill-opacity="1"/><g fill="#faf6f5" fill-opacity="1"><g transform="translate(169.279388, 228.969887)"><g><path d="M 9.613281 0 L 19.230469 0 C 19.230469 0 19.109375 -106.605469 19.109375 -110.210938 C 19.109375 -116.703125 21.152344 -117.785156 25.480469 -117.785156 L 54.324219 -117.785156 C 78.363281 -117.785156 90.980469 -105.523438 90.980469 -85.933594 C 90.980469 -66.34375 78.363281 -54.085938 54.324219 -54.085938 L 30.769531 -54.085938 L 30.769531 -51.679688 L 41.464844 -51.679688 C 55.886719 -51.679688 75.117188 -10.214844 92.183594 0 L 105.765625 0 C 100.355469 -3.605469 90.980469 -12.257812 83.53125 -22.234375 C 74.757812 -34.011719 68.144531 -43.027344 61.414062 -48.316406 C 58.53125 -50.597656 57.808594 -51.679688 61.414062 -51.679688 L 64.902344 -51.679688 C 95.550781 -52.042969 102.398438 -73.914062 102.398438 -85.933594 C 102.398438 -97.953125 95.550781 -120.1875 64.902344 -120.1875 L 9.613281 -120.1875 Z M 9.613281 0 "/></g></g></g><g clip-path="url(#27f38e0595)"><path fill="#8f6e5d" d="M 163.257812 95.253906 L 208.960938 95.253906 L 208.960938 234.121094 L 163.257812 234.121094 Z M 163.257812 95.253906 " fill-opacity="1" fill-rule="nonzero"/></g><g fill="#faf6f5" fill-opacity="1"><g transform="translate(92.637624, 228.969887)"><g><path d="M 64.902344 0 C 95.550781 0 102.398438 -22.234375 102.398438 -34.253906 C 102.398438 -45.671875 96.269531 -66.222656 69.589844 -68.386719 C 88.9375 -71.390625 94.105469 -86.535156 94.105469 -93.625 C 94.105469 -101.558594 90.863281 -120.1875 62.257812 -120.1875 L 9.613281 -120.1875 L 9.613281 0 Z M 19.109375 -10.578125 C 19.109375 -12.257812 19.109375 -35.335938 19.230469 -60.453125 C 19.230469 -64.058594 21.632812 -66.464844 25.238281 -66.464844 L 54.324219 -66.464844 C 78.363281 -66.464844 90.980469 -53.84375 90.980469 -34.253906 C 90.980469 -14.664062 78.363281 -2.402344 54.324219 -2.402344 L 25.480469 -2.402344 C 21.152344 -2.402344 19.109375 -4.085938 19.109375 -10.578125 Z M 19.230469 -112.015625 C 19.710938 -116.582031 21.753906 -117.785156 25.480469 -117.785156 L 55.046875 -117.785156 C 73.914062 -117.785156 84.132812 -107.449219 84.132812 -93.988281 C 84.132812 -80.40625 73.914062 -68.867188 55.046875 -68.867188 L 25.238281 -68.867188 C 21.632812 -68.867188 19.230469 -71.269531 19.230469 -74.875 Z M 19.230469 -112.015625 "/></g></g></g><g fill="#faf6f5" fill-opacity="1"><g transform="translate(98.847051, 266.49051)"><g><path d="M 7.1875 -2.390625 C 7.1875 -1.671875 6.957031 -1.09375 6.5 -0.65625 C 6.050781 -0.21875 5.453125 0 4.703125 0 L 0.90625 0 L 0.90625 -8.40625 L 4.3125 -8.40625 C 4.695312 -8.40625 5.039062 -8.359375 5.34375 -8.265625 C 5.644531 -8.171875 5.882812 -8.050781 6.0625 -7.90625 C 6.238281 -7.757812 6.382812 -7.585938 6.5 -7.390625 C 6.625 -7.191406 6.707031 -7 6.75 -6.8125 C 6.789062 -6.632812 6.8125 -6.453125 6.8125 -6.265625 C 6.8125 -5.410156 6.425781 -4.804688 5.65625 -4.453125 C 6.1875 -4.234375 6.570312 -3.960938 6.8125 -3.640625 C 7.0625 -3.316406 7.1875 -2.898438 7.1875 -2.390625 Z M 5.734375 -6.125 C 5.734375 -6.382812 5.691406 -6.601562 5.609375 -6.78125 C 5.523438 -6.96875 5.398438 -7.109375 5.234375 -7.203125 C 5.066406 -7.296875 4.890625 -7.359375 4.703125 -7.390625 C 4.515625 -7.429688 4.300781 -7.453125 4.0625 -7.453125 L 1.984375 -7.453125 L 1.984375 -4.78125 L 4.0625 -4.78125 C 4.601562 -4.78125 5.015625 -4.882812 5.296875 -5.09375 C 5.585938 -5.300781 5.734375 -5.644531 5.734375 -6.125 Z M 4.59375 -0.953125 C 4.882812 -0.953125 5.132812 -0.992188 5.34375 -1.078125 C 5.550781 -1.171875 5.707031 -1.289062 5.8125 -1.4375 C 5.914062 -1.59375 5.988281 -1.75 6.03125 -1.90625 C 6.082031 -2.0625 6.109375 -2.222656 6.109375 -2.390625 C 6.109375 -2.828125 5.976562 -3.175781 5.71875 -3.4375 C 5.457031 -3.707031 5.082031 -3.84375 4.59375 -3.84375 L 1.984375 -3.84375 L 1.984375 -0.953125 Z M 4.59375 -0.953125 "/></g></g></g><g fill="#faf6f5" fill-opacity="1"><g transform="translate(115.749666, 266.49051)"><g><path d="M 2.109375 -3.828125 L 2.109375 -0.953125 L 7.078125 -0.953125 L 7.078125 0 L 1.03125 0 L 1.03125 -8.40625 L 6.859375 -8.40625 L 6.859375 -7.453125 L 2.109375 -7.453125 L 2.109375 -4.765625 L 6.6875 -4.765625 L 6.6875 -3.828125 Z M 2.109375 -3.828125 "/></g></g></g><g fill="#faf6f5" fill-opacity="1"><g transform="translate(132.652282, 266.49051)"><g><path d="M 5.46875 -2.53125 L 2.234375 -2.53125 L 1.34375 0 L 0.203125 0 L 3.203125 -8.40625 L 4.578125 -8.40625 L 7.53125 0 L 6.328125 0 Z M 5.15625 -3.421875 L 3.875 -7.265625 L 2.484375 -3.421875 Z M 5.15625 -3.421875 "/></g></g></g><g fill="#faf6f5" fill-opacity="1"><g transform="translate(149.554899, 266.49051)"><g><path d="M 6.375 -8.40625 L 7.4375 -8.40625 L 7.4375 -2.5 C 7.4375 -1.65625 7.140625 -0.984375 6.546875 -0.484375 C 5.960938 0.015625 5.179688 0.265625 4.203125 0.265625 C 3.203125 0.265625 2.414062 0.0195312 1.84375 -0.46875 C 1.269531 -0.96875 0.984375 -1.644531 0.984375 -2.5 L 0.984375 -8.40625 L 2.046875 -8.40625 L 2.046875 -2.5 C 2.046875 -1.894531 2.238281 -1.4375 2.625 -1.125 C 3.019531 -0.820312 3.546875 -0.671875 4.203125 -0.671875 C 4.867188 -0.671875 5.394531 -0.832031 5.78125 -1.15625 C 6.175781 -1.488281 6.375 -1.9375 6.375 -2.5 Z M 6.375 -8.40625 "/></g></g></g><g fill="#faf6f5" fill-opacity="1"><g transform="translate(167.09135, 266.49051)"><g><path d="M 4.078125 -7.453125 L 4.078125 0 L 3.015625 0 L 3.015625 -7.453125 L 0.25 -7.453125 L 0.25 -8.40625 L 6.84375 -8.40625 L 6.84375 -7.453125 Z M 4.078125 -7.453125 "/></g></g></g><g fill="#faf6f5" fill-opacity="1"><g transform="translate(183.347305, 266.49051)"><g><path d="M 4.453125 -3.296875 L 4.453125 0 L 3.390625 0 L 3.390625 -3.296875 L 0.15625 -8.40625 L 1.46875 -8.40625 L 3.953125 -4.3125 L 6.34375 -8.40625 L 7.625 -8.40625 Z M 4.453125 -3.296875 "/></g></g></g><g fill="#faf6f5" fill-opacity="1"><g transform="translate(200.249918, 266.49051)"><g/></g></g><g fill="#faf6f5" fill-opacity="1"><g transform="translate(212.670773, 266.49051)"><g><path d="M 6.1875 -4.15625 C 6.46875 -4.03125 6.691406 -3.875 6.859375 -3.6875 C 7.035156 -3.507812 7.148438 -3.320312 7.203125 -3.125 C 7.265625 -2.925781 7.300781 -2.71875 7.3125 -2.5 C 7.332031 -2.28125 7.335938 -2.0625 7.328125 -1.84375 C 7.328125 -1.632812 7.328125 -1.429688 7.328125 -1.234375 C 7.335938 -1.046875 7.378906 -0.863281 7.453125 -0.6875 C 7.535156 -0.507812 7.660156 -0.367188 7.828125 -0.265625 L 7.828125 0 L 6.53125 0 C 6.375 -0.363281 6.296875 -0.820312 6.296875 -1.375 L 6.296875 -2.125 C 6.296875 -2.644531 6.179688 -3.023438 5.953125 -3.265625 C 5.734375 -3.503906 5.382812 -3.625 4.90625 -3.625 L 2.140625 -3.625 L 2.140625 0 L 1.078125 0 L 1.078125 -8.40625 L 4.953125 -8.40625 C 5.773438 -8.40625 6.40625 -8.210938 6.84375 -7.828125 C 7.28125 -7.441406 7.5 -6.882812 7.5 -6.15625 C 7.5 -5.675781 7.394531 -5.28125 7.1875 -4.96875 C 6.988281 -4.65625 6.65625 -4.382812 6.1875 -4.15625 Z M 6.390625 -6.015625 C 6.390625 -6.296875 6.347656 -6.535156 6.265625 -6.734375 C 6.179688 -6.929688 6.054688 -7.078125 5.890625 -7.171875 C 5.734375 -7.273438 5.5625 -7.347656 5.375 -7.390625 C 5.195312 -7.429688 4.984375 -7.453125 4.734375 -7.453125 L 2.140625 -7.453125 L 2.140625 -4.5625 L 4.734375 -4.5625 C 5.304688 -4.5625 5.722656 -4.675781 5.984375 -4.90625 C 6.253906 -5.144531 6.390625 -5.515625 6.390625 -6.015625 Z M 6.390625 -6.015625 "/></g></g></g><g fill="#faf6f5" fill-opacity="1"><g transform="translate(230.207232, 266.49051)"><g><path d="M 8.5625 -4.078125 C 8.5625 -3.472656 8.460938 -2.90625 8.265625 -2.375 C 8.078125 -1.84375 7.8125 -1.378906 7.46875 -0.984375 C 7.125 -0.597656 6.695312 -0.289062 6.1875 -0.0625 C 5.675781 0.15625 5.113281 0.265625 4.5 0.265625 C 3.28125 0.265625 2.296875 -0.140625 1.546875 -0.953125 C 0.804688 -1.765625 0.4375 -2.828125 0.4375 -4.140625 C 0.4375 -5.453125 0.804688 -6.515625 1.546875 -7.328125 C 2.296875 -8.140625 3.273438 -8.546875 4.484375 -8.546875 C 5.710938 -8.546875 6.695312 -8.140625 7.4375 -7.328125 C 8.1875 -6.515625 8.5625 -5.429688 8.5625 -4.078125 Z M 4.484375 -7.59375 C 3.597656 -7.59375 2.878906 -7.273438 2.328125 -6.640625 C 1.773438 -6.003906 1.5 -5.164062 1.5 -4.125 C 1.5 -3.09375 1.773438 -2.257812 2.328125 -1.625 C 2.878906 -0.988281 3.601562 -0.671875 4.5 -0.671875 C 5.382812 -0.671875 6.101562 -0.984375 6.65625 -1.609375 C 7.207031 -2.242188 7.484375 -3.070312 7.484375 -4.09375 C 7.484375 -5.15625 7.207031 -6.003906 6.65625 -6.640625 C 6.113281 -7.273438 5.390625 -7.59375 4.484375 -7.59375 Z M 4.484375 -7.59375 "/></g></g></g><g fill="#faf6f5" fill-opacity="1"><g transform="translate(248.390349, 266.49051)"><g><path d="M 8.5625 -4.078125 C 8.5625 -3.472656 8.460938 -2.90625 8.265625 -2.375 C 8.078125 -1.84375 7.8125 -1.378906 7.46875 -0.984375 C 7.125 -0.597656 6.695312 -0.289062 6.1875 -0.0625 C 5.675781 0.15625 5.113281 0.265625 4.5 0.265625 C 3.28125 0.265625 2.296875 -0.140625 1.546875 -0.953125 C 0.804688 -1.765625 0.4375 -2.828125 0.4375 -4.140625 C 0.4375 -5.453125 0.804688 -6.515625 1.546875 -7.328125 C 2.296875 -8.140625 3.273438 -8.546875 4.484375 -8.546875 C 5.710938 -8.546875 6.695312 -8.140625 7.4375 -7.328125 C 8.1875 -6.515625 8.5625 -5.429688 8.5625 -4.078125 Z M 4.484375 -7.59375 C 3.597656 -7.59375 2.878906 -7.273438 2.328125 -6.640625 C 1.773438 -6.003906 1.5 -5.164062 1.5 -4.125 C 1.5 -3.09375 1.773438 -2.257812 2.328125 -1.625 C 2.878906 -0.988281 3.601562 -0.671875 4.5 -0.671875 C 5.382812 -0.671875 6.101562 -0.984375 6.65625 -1.609375 C 7.207031 -2.242188 7.484375 -3.070312 7.484375 -4.09375 C 7.484375 -5.15625 7.207031 -6.003906 6.65625 -6.640625 C 6.113281 -7.273438 5.390625 -7.59375 4.484375 -7.59375 Z M 4.484375 -7.59375 "/></g></g></g><g fill="#faf6f5" fill-opacity="1"><g transform="translate(266.573466, 266.49051)"><g><path d="M 5.390625 0 L 4.265625 0 L 1.875 -7.046875 L 1.875 0 L 0.859375 0 L 0.859375 -8.40625 L 2.34375 -8.40625 L 4.84375 -1.078125 L 7.296875 -8.40625 L 8.78125 -8.40625 L 8.78125 0 L 7.765625 0 L 7.765625 -7.046875 Z M 5.390625 0 "/></g></g></g></svg>