<svg xmlns="http://www.w3.org/2000/svg" xmlns:xlink="http://www.w3.org/1999/xlink" width="500" zoomAndPan="magnify" viewBox="0 0 375 374.999991" height="500" preserveAspectRatio="xMidYMid meet" version="1.0"><defs><g/><clipPath id="ef515f78e4"><path d="M 145.96875 127.851562 L 208.832031 127.851562 L 208.832031 217 L 145.96875 217 Z M 145.96875 127.851562 " clip-rule="nonzero"/></clipPath><clipPath id="ff1f6e51be"><path d="M 177.273438 127.851562 L 208.578125 216.867188 L 145.96875 216.867188 L 177.273438 127.851562 " clip-rule="nonzero"/></clipPath><clipPath id="bf9f1190e1"><path d="M 120.222656 146.242188 L 200.472656 146.242188 L 200.472656 186.742188 L 120.222656 186.742188 Z M 120.222656 146.242188 " clip-rule="nonzero"/></clipPath></defs><rect x="-37.5" width="450" fill="#ffffff" y="-37.499999" height="449.999989" fill-opacity="1"/><rect x="-37.5" width="450" fill="#f6f1ef" y="-37.499999" height="449.999989" fill-opacity="1"/><g fill="#393535" fill-opacity="1"><g transform="translate(140.609431, 207.795222)"><g><path d="M 58.792969 -13.441406 C 61.054688 -6.40625 61.179688 -1.128906 60.300781 -1.128906 L 60.300781 0 L 75 0 L 75 -1.128906 C 73.113281 -1.128906 69.972656 -8.792969 66.707031 -18.214844 L 42.710938 -88.1875 L 33.164062 -88.1875 L 35.550781 -81.28125 L 13.191406 -15.828125 C 9.296875 -4.523438 5.652344 -1.128906 3.769531 -1.128906 L 3.769531 0 L 14.445312 0 L 14.445312 -1.128906 C 11.179688 -1.128906 10.929688 -5.90625 14.320312 -15.453125 L 20.476562 -33.792969 C 22.234375 -38.691406 28.515625 -39.824219 33.039062 -39.445312 C 45.351562 -38.191406 54.019531 -27.511719 57.789062 -16.457031 Z M 36.179688 -79.519531 L 54.648438 -25.753906 C 49.875 -33.417969 42.460938 -39.570312 33.039062 -40.453125 C 29.394531 -40.828125 24.75 -40.199219 21.859375 -37.5625 Z M 36.179688 -79.519531 "/></g></g></g><g clip-path="url(#ef515f78e4)"><g clip-path="url(#ff1f6e51be)"><path fill="#f6f1ef" d="M 145.96875 127.851562 L 208.832031 127.851562 L 208.832031 216.664062 L 145.96875 216.664062 Z M 145.96875 127.851562 " fill-opacity="1" fill-rule="nonzero"/></g></g><g clip-path="url(#bf9f1190e1)"><path fill="#393535" d="M 156.75 164.65625 C 155.519531 164.988281 154.496094 165.566406 153.433594 166.027344 C 152.335938 166.5 151.257812 167.027344 150.089844 167.273438 C 148.925781 167.519531 147.75 167.710938 146.617188 168.085938 C 145.476562 168.460938 144.300781 168.652344 143.117188 168.78125 C 141.941406 168.910156 140.753906 168.980469 139.570312 169.074219 C 139.480469 169.410156 139.765625 169.351562 139.902344 169.378906 C 142.269531 169.875 144.628906 169.679688 147 169.339844 C 149.574219 168.96875 152.132812 167.667969 154.683594 166.355469 C 154.890625 166.246094 155.074219 166.078125 155.335938 166.125 C 155.058594 166.875 154.339844 167.132812 153.726562 167.453125 C 152.417969 168.140625 151.070312 168.75 149.730469 169.382812 C 149.472656 169.503906 149.195312 169.601562 148.917969 169.664062 C 147.15625 170.0625 145.402344 170.445312 143.574219 170.585938 C 140.851562 170.789062 138.390625 169.988281 135.914062 169.109375 C 135.867188 169.089844 135.824219 169.066406 135.78125 169.046875 C 135.300781 168.796875 135.273438 168.410156 135.710938 168.03125 C 136.1875 167.617188 136.757812 167.371094 137.351562 167.175781 C 138.3125 166.859375 139.199219 166.417969 140.007812 165.800781 C 140.34375 165.542969 140.71875 165.296875 141.117188 165.15625 C 142.515625 164.664062 143.863281 164.054688 145.222656 163.472656 C 145.746094 163.25 146.308594 163.105469 146.867188 162.988281 C 148.890625 162.5625 150.941406 162.492188 152.992188 162.628906 C 154.035156 162.695312 155.09375 162.796875 156.066406 163.242188 C 156.746094 163.550781 157.445312 163.589844 158.164062 163.480469 C 159.300781 163.3125 160.4375 163.210938 161.585938 163.191406 C 161.726562 163.191406 161.871094 163.164062 161.851562 162.960938 C 161.789062 162.894531 161.742188 162.792969 161.667969 162.765625 C 158.03125 161.453125 154.378906 160.1875 150.613281 159.277344 C 150.046875 159.140625 149.488281 159.109375 148.910156 159.191406 C 147.449219 159.410156 145.984375 159.605469 144.53125 159.902344 C 143.179688 160.179688 141.804688 160.378906 140.429688 160.523438 C 139.101562 160.667969 137.757812 160.632812 136.4375 160.421875 C 133.167969 159.890625 130.03125 158.929688 127.019531 157.539062 C 125.195312 156.699219 123.296875 156.066406 121.332031 155.644531 C 120.980469 155.570312 120.425781 155.71875 120.332031 155.296875 C 120.21875 154.78125 120.789062 154.660156 121.152344 154.472656 C 121.492188 154.296875 121.847656 154.15625 122.210938 154.035156 C 124.0625 153.398438 125.882812 152.6875 127.738281 152.058594 C 130.339844 151.171875 132.976562 151.023438 135.644531 151.402344 C 137.386719 151.652344 139.09375 152.136719 140.8125 152.546875 C 141.886719 152.804688 142.875 153.285156 143.871094 153.75 C 145.703125 154.609375 147.304688 155.820312 148.867188 157.078125 C 150.15625 158.117188 151.507812 158.960938 153.179688 159.191406 C 153.414062 159.222656 153.636719 159.3125 153.867188 159.382812 C 158.042969 160.59375 162.128906 162.066406 166.175781 163.640625 C 166.332031 163.699219 166.507812 163.828125 166.691406 163.617188 C 166.515625 162.855469 165.902344 162.457031 165.304688 162.082031 C 163.925781 161.21875 162.496094 160.457031 160.976562 159.867188 C 158.660156 158.96875 156.40625 157.945312 154.195312 156.804688 C 151.214844 155.269531 148.710938 153.195312 146.6875 150.519531 C 146.488281 150.253906 146.242188 150.019531 145.988281 149.800781 C 144.757812 148.742188 143.503906 147.710938 141.949219 147.128906 C 141.722656 147.042969 141.3125 146.988281 141.429688 146.601562 C 141.527344 146.273438 141.886719 146.316406 142.167969 146.3125 C 142.453125 146.308594 142.742188 146.3125 143.027344 146.335938 C 143.976562 146.417969 144.929688 146.492188 145.875 146.597656 C 148.695312 146.914062 151.421875 147.570312 153.9375 148.929688 C 155.074219 149.542969 156.265625 150.089844 157.285156 150.859375 C 159.578125 152.59375 161.566406 154.660156 163.328125 156.941406 C 163.445312 157.089844 163.535156 157.261719 163.621094 157.429688 C 164.5625 159.257812 165.652344 160.980469 167.007812 162.535156 C 167.484375 163.078125 167.972656 163.589844 168.5625 164.007812 C 170.082031 165.085938 171.65625 166.078125 173.332031 166.894531 C 177.761719 169.054688 181.976562 171.570312 185.875 174.601562 C 186.65625 175.210938 187.488281 175.75 188.519531 176.328125 C 188.425781 175.917969 188.300781 175.734375 188.160156 175.554688 C 187.277344 174.425781 186.410156 173.285156 185.710938 172.027344 C 185.394531 171.464844 184.910156 171.105469 184.367188 170.777344 C 182.035156 169.371094 179.730469 167.929688 177.398438 166.523438 C 175.988281 165.671875 174.761719 164.589844 173.785156 163.296875 C 172.777344 161.96875 171.910156 160.519531 171.101562 159.058594 C 169.878906 156.847656 168.753906 154.578125 167.320312 152.496094 C 167.28125 152.4375 167.296875 152.300781 167.339844 152.242188 C 167.386719 152.183594 167.511719 152.125 167.574219 152.144531 C 167.800781 152.21875 168.023438 152.308594 168.226562 152.425781 C 168.925781 152.835938 169.605469 153.28125 170.3125 153.671875 C 172.949219 155.128906 175.453125 156.796875 177.9375 158.496094 C 179.007812 159.234375 179.898438 160.152344 180.617188 161.253906 C 181.800781 163.058594 182.839844 164.957031 183.6875 166.929688 C 184.910156 169.777344 186.71875 172.234375 188.453125 174.746094 C 188.75 175.179688 189.0625 175.597656 189.332031 176.050781 C 189.847656 176.914062 190.441406 177.726562 191.3125 178.28125 C 194.019531 180.007812 196.449219 182.09375 198.859375 184.199219 C 199.328125 184.609375 199.761719 185.050781 200.1875 185.503906 C 200.464844 185.800781 200.386719 186.242188 200.046875 186.503906 C 199.773438 186.710938 199.507812 186.648438 199.273438 186.4375 C 199.128906 186.308594 199.003906 186.164062 198.867188 186.03125 C 196.351562 183.542969 193.695312 181.207031 190.898438 179.042969 C 189.652344 178.078125 188.390625 177.128906 187.078125 176.261719 C 185.285156 175.078125 183.449219 173.960938 181.726562 172.675781 C 181.308594 172.359375 180.84375 172.105469 180.402344 171.824219 C 180.199219 171.695312 179.992188 171.585938 179.738281 171.589844 C 179.027344 171.59375 178.3125 171.578125 177.597656 171.597656 C 176.753906 171.617188 176.019531 171.910156 175.433594 172.542969 C 174.773438 173.253906 173.960938 173.75 173.132812 174.238281 C 172.433594 174.652344 171.746094 175.082031 171.089844 175.558594 C 170.421875 176.042969 169.710938 176.398438 168.917969 176.621094 C 168.320312 176.785156 167.714844 176.953125 167.160156 177.21875 C 166.410156 177.578125 165.636719 177.769531 164.820312 177.828125 C 163.964844 177.890625 163.109375 177.976562 162.253906 178.019531 C 159.960938 178.136719 157.800781 177.617188 155.746094 176.621094 C 155.296875 176.402344 155.246094 176.257812 155.519531 175.859375 C 156.476562 174.472656 157.535156 173.179688 158.972656 172.269531 C 159.859375 171.707031 160.769531 171.183594 161.683594 170.660156 C 161.96875 170.496094 162.289062 170.355469 162.609375 170.285156 C 164.195312 169.953125 165.785156 169.621094 167.425781 169.707031 C 169.765625 169.832031 172.101562 169.996094 174.324219 170.8125 C 175.617188 171.289062 176.835938 171.019531 178.070312 170.710938 C 178.066406 170.402344 177.871094 170.332031 177.722656 170.25 C 174.433594 168.402344 171.105469 166.628906 167.65625 165.097656 C 166.742188 164.691406 165.804688 164.339844 164.867188 163.980469 C 164.605469 163.882812 164.308594 163.785156 164.039062 163.8125 C 162 164.007812 159.9375 163.980469 157.914062 164.378906 C 157.511719 164.457031 157.246094 164.625 157 164.96875 C 156.585938 165.554688 156.054688 166.03125 155.296875 166.148438 C 155.53125 165.457031 156.367188 165.386719 156.75 164.65625 Z M 182.960938 167.46875 C 182.789062 166.992188 182.519531 166.601562 182.019531 166.417969 C 182.015625 166.25 181.953125 166.113281 181.796875 166.035156 C 181.847656 165.859375 181.785156 165.742188 181.617188 165.683594 C 181.578125 165.25 181.324219 165.015625 180.917969 164.929688 C 180.964844 164.738281 180.871094 164.636719 180.707031 164.578125 C 180.617188 164.035156 180.300781 163.675781 179.804688 163.464844 C 179.726562 163.066406 179.453125 162.855469 179.089844 162.738281 C 179.023438 162.605469 178.957031 162.472656 178.890625 162.339844 C 178.726562 162.210938 178.566406 162.082031 178.40625 161.953125 C 178.578125 162.078125 178.746094 162.195312 178.917969 162.320312 C 178.984375 162.453125 179.050781 162.585938 179.117188 162.71875 C 179.25 163.054688 179.425781 163.355469 179.804688 163.464844 C 179.929688 163.988281 180.265625 164.328125 180.730469 164.5625 C 180.6875 164.75 180.777344 164.855469 180.941406 164.914062 C 181.019531 165.3125 181.257812 165.558594 181.640625 165.667969 C 181.605469 165.835938 181.691406 165.941406 181.824219 166.019531 C 181.898438 166.144531 181.976562 166.269531 182.046875 166.394531 C 182.292969 166.808594 182.464844 167.289062 182.988281 167.453125 C 182.96875 167.617188 183.039062 167.730469 183.183594 167.800781 L 183.214844 167.859375 L 183.195312 167.816406 C 183.117188 167.699219 183.042969 167.585938 182.960938 167.46875 Z M 181.195312 163.777344 C 181.128906 163.660156 181.0625 163.546875 180.992188 163.429688 C 180.09375 161.492188 178.828125 159.871094 177.03125 158.691406 C 176.277344 158.199219 175.535156 157.6875 174.792969 157.175781 C 174.476562 156.957031 174.152344 156.773438 173.769531 156.703125 C 173.726562 156.632812 173.683594 156.558594 173.636719 156.492188 C 173.503906 156.707031 173.746094 156.617188 173.792969 156.6875 C 174.210938 157.328125 174.796875 157.804688 175.363281 158.296875 C 177.109375 159.824219 178.851562 161.351562 180.433594 163.054688 C 180.59375 163.230469 180.761719 163.394531 181.019531 163.414062 C 181.019531 163.566406 181.070312 163.691406 181.222656 163.757812 C 181.289062 163.882812 181.355469 164.007812 181.425781 164.132812 L 181.453125 164.203125 L 181.441406 164.148438 C 181.359375 164.023438 181.277344 163.898438 181.195312 163.777344 Z M 173.332031 173.375 C 173.402344 173.378906 173.382812 173.449219 173.296875 173.421875 C 173.296875 173.421875 173.25 173.441406 173.25 173.441406 L 173.304688 173.425781 C 173.382812 173.253906 173.144531 173.355469 173.332031 173.375 Z M 172.363281 173.757812 L 172.296875 173.734375 C 172.191406 173.820312 172.089844 173.90625 171.988281 173.996094 C 171.894531 173.996094 171.785156 173.96875 171.707031 174.003906 C 169.492188 174.960938 167.128906 175.253906 164.777344 175.613281 C 162.988281 175.890625 161.199219 176.136719 159.390625 176.222656 C 158.644531 176.257812 157.894531 176.269531 157.148438 176.296875 C 157.074219 176.628906 157.34375 176.609375 157.488281 176.664062 C 159.023438 177.253906 160.632812 177.417969 162.257812 177.351562 C 163.304688 177.308594 164.347656 177.1875 165.386719 177.070312 C 165.761719 177.027344 166.15625 176.960938 166.488281 176.796875 C 167.429688 176.320312 168.441406 176.050781 169.433594 175.714844 C 170.429688 175.378906 171.320312 174.847656 171.980469 173.992188 C 172.179688 174.003906 172.261719 173.886719 172.277344 173.707031 Z M 172.566406 155.78125 C 172.574219 155.78125 172.582031 155.78125 172.589844 155.78125 C 172.582031 155.859375 172.574219 155.761719 172.566406 155.78125 Z M 172.742188 157.589844 C 172.882812 157.730469 173.019531 157.867188 173.15625 158.007812 L 173.191406 158.070312 L 173.164062 158.015625 C 173.015625 157.878906 172.867188 157.738281 172.714844 157.601562 C 172.53125 157.472656 172.347656 157.34375 172.164062 157.21875 L 172.132812 157.148438 L 172.152344 157.203125 C 172.347656 157.332031 172.542969 157.460938 172.742188 157.589844 Z M 174.386719 159.191406 C 174.546875 159.332031 174.703125 159.472656 174.859375 159.613281 C 174.972656 159.808594 175.125 159.957031 175.347656 160.015625 C 175.355469 160.0625 175.347656 160.125 175.375 160.15625 C 176.800781 161.820312 178.203125 163.511719 179.765625 165.054688 C 179.894531 165.179688 180.085938 165.238281 180.25 165.332031 C 180.210938 165.515625 180.316406 165.613281 180.457031 165.691406 C 180.535156 165.941406 180.738281 166.027344 180.96875 166.070312 L 180.976562 166.175781 L 180.941406 166.089844 C 180.851562 165.851562 180.660156 165.757812 180.433594 165.707031 C 180.464844 165.53125 180.371094 165.421875 180.226562 165.347656 C 179.976562 164.605469 179.367188 164.128906 178.898438 163.554688 C 178.214844 162.71875 177.503906 161.902344 176.765625 161.113281 C 176.355469 160.675781 175.960938 160.183594 175.324219 160.035156 C 175.292969 159.734375 175.039062 159.714844 174.835938 159.632812 C 174.777344 159.378906 174.550781 159.316406 174.363281 159.210938 C 174.257812 158.980469 174.039062 158.914062 173.832031 158.832031 L 173.824219 158.757812 L 173.832031 158.804688 C 174.015625 158.933594 174.199219 159.0625 174.386719 159.191406 Z M 177.464844 165.199219 C 176.316406 164.070312 175.082031 163.03125 174.003906 161.824219 C 173.945312 161.757812 173.835938 161.746094 173.75 161.707031 C 173.785156 161.546875 173.675781 161.46875 173.570312 161.378906 C 173.476562 161.296875 173.410156 161.289062 173.371094 161.386719 C 173.359375 161.417969 173.382812 161.484375 173.410156 161.507812 C 173.515625 161.582031 173.628906 161.648438 173.738281 161.71875 C 173.773438 162.222656 174.042969 162.628906 174.351562 162.980469 C 175.460938 164.234375 176.632812 165.421875 178.117188 166.238281 C 178.320312 166.351562 178.558594 166.394531 178.785156 166.46875 C 178.828125 166.539062 178.875 166.605469 178.917969 166.675781 C 179.050781 166.457031 178.8125 166.550781 178.761719 166.484375 C 178.460938 165.921875 177.898438 165.625 177.464844 165.199219 Z M 179.316406 165.558594 C 177.769531 163.828125 176.21875 162.105469 174.632812 160.414062 C 174.019531 159.757812 173.3125 159.191406 172.628906 158.605469 C 172.503906 158.496094 172.285156 158.488281 172.109375 158.433594 L 172.152344 158.359375 L 172.140625 158.414062 C 172.832031 159.925781 174.105469 160.96875 175.203125 162.136719 C 176.667969 163.691406 178.195312 165.195312 179.90625 166.488281 C 179.964844 166.523438 180.023438 166.550781 180.085938 166.585938 C 180.019531 166.554688 179.949219 166.527344 179.882812 166.496094 C 179.902344 166.058594 179.554688 165.824219 179.316406 165.558594 Z M 157.339844 174.875 C 158.257812 174.804688 159.105469 174.480469 159.925781 174.105469 C 160.589844 173.804688 161.265625 173.648438 161.988281 173.578125 C 163.933594 173.382812 165.859375 173.058594 167.761719 172.613281 C 168.554688 172.429688 169.367188 172.445312 170.363281 172.222656 C 169.488281 172.03125 168.804688 172.085938 168.125 172.121094 C 167.269531 172.164062 166.410156 172.183594 165.554688 172.242188 C 165.035156 172.28125 164.511719 172.359375 164 172.460938 C 163.160156 172.628906 162.3125 172.792969 161.488281 173.023438 C 160.015625 173.429688 158.625 174.03125 157.355469 174.894531 Z M 154.621094 164.714844 C 154.597656 164.707031 154.574219 164.691406 154.550781 164.6875 C 154.507812 164.683594 154.46875 164.691406 154.425781 164.695312 C 151.757812 164.953125 149.1875 165.679688 146.597656 166.3125 C 146.089844 166.433594 145.574219 166.535156 145.0625 166.648438 C 144.691406 166.730469 144.304688 166.769531 143.949219 166.898438 C 142.835938 167.300781 141.753906 167.796875 140.574219 168.125 C 141.082031 168.121094 141.589844 168.140625 142.09375 168.105469 C 143.804688 167.988281 145.5 167.757812 147.15625 167.257812 C 147.976562 167.011719 148.816406 166.824219 149.65625 166.667969 C 151.167969 166.378906 152.582031 165.820312 153.960938 165.164062 C 154.171875 165.0625 154.390625 164.953125 154.40625 164.667969 C 154.476562 164.683594 154.550781 164.699219 154.621094 164.714844 Z M 142.390625 159.429688 C 142.515625 159.46875 142.574219 159.4375 142.539062 159.347656 C 142.535156 159.328125 142.453125 159.328125 142.414062 159.335938 C 142.324219 159.347656 142.238281 159.371094 142.152344 159.386719 C 139.253906 159.613281 136.480469 159.039062 133.738281 158.160156 C 130.835938 157.230469 127.875 156.523438 124.898438 155.878906 C 124.777344 155.855469 124.648438 155.871094 124.507812 155.914062 C 126.375 156.359375 128.03125 157.328125 129.808594 157.980469 C 132.914062 159.113281 136.070312 159.945312 139.402344 159.886719 C 140.117188 159.875 140.832031 159.855469 141.527344 159.675781 C 141.746094 159.617188 142.003906 159.609375 142.128906 159.359375 C 142.214844 159.382812 142.304688 159.40625 142.390625 159.429688 Z M 157.851562 173.902344 L 157.90625 173.902344 C 158.722656 173.515625 159.542969 173.128906 160.363281 172.742188 C 160.449219 172.703125 160.535156 172.65625 160.628906 172.636719 C 162.445312 172.273438 164.21875 171.726562 166.097656 171.632812 C 168.433594 171.515625 170.765625 171.582031 173.101562 171.554688 C 173.191406 171.554688 173.277344 171.5 173.363281 171.472656 C 173.375 171.214844 173.171875 171.167969 173 171.113281 C 171.203125 170.554688 169.339844 170.503906 167.480469 170.394531 C 165.847656 170.300781 164.246094 170.554688 162.652344 170.855469 C 162.371094 170.910156 162.074219 170.960938 161.832031 171.097656 C 160.5 171.84375 159.214844 172.660156 158.027344 173.625 C 157.964844 173.675781 157.960938 173.796875 157.929688 173.886719 Z M 147.765625 150.863281 C 149.269531 152.386719 150.769531 153.941406 152.644531 155.039062 C 154.417969 156.074219 156.230469 157.03125 158.101562 157.871094 C 158.226562 157.925781 158.375 157.9375 158.722656 158.023438 C 157.675781 157.140625 156.808594 156.359375 155.886719 155.65625 C 154.558594 154.644531 153.191406 153.6875 151.839844 152.707031 C 151.570312 152.507812 151.269531 152.339844 151.050781 152.09375 C 150.046875 150.96875 148.726562 150.277344 147.511719 149.441406 C 147.109375 149.164062 146.679688 148.980469 146.214844 148.863281 C 146.164062 148.832031 146.113281 148.800781 146.058594 148.769531 C 146.082031 148.792969 146.097656 148.824219 146.125 148.832031 C 146.15625 148.847656 146.199219 148.84375 146.234375 148.847656 C 146.589844 149.636719 147.1875 150.277344 147.765625 150.863281 Z M 147.09375 158.53125 C 143.683594 157.824219 140.269531 157.15625 136.804688 156.777344 C 134.390625 156.511719 131.984375 156.199219 129.539062 155.90625 C 129.832031 156.285156 130.269531 156.207031 130.613281 156.351562 C 131.007812 156.515625 131.410156 156.679688 131.824219 156.792969 C 133.84375 157.355469 135.867188 157.910156 137.894531 158.449219 C 138.820312 158.695312 139.769531 158.792969 140.726562 158.785156 C 142.347656 158.777344 143.964844 158.792969 145.585938 158.765625 C 146.089844 158.757812 146.636719 158.890625 147.078125 158.503906 C 147.074219 158.515625 147.136719 158.496094 147.09375 158.53125 Z M 159.855469 154.039062 C 159.695312 153.863281 159.488281 153.734375 159.328125 153.554688 C 157.164062 151.148438 154.324219 149.804688 151.457031 148.503906 C 151.070312 148.324219 150.652344 148.199219 150.238281 148.097656 C 148.949219 147.773438 147.652344 147.46875 146.332031 147.230469 C 147.347656 147.929688 148.519531 148.265625 149.636719 148.714844 C 151.367188 149.402344 153.011719 150.246094 154.523438 151.339844 C 155.183594 151.816406 155.847656 152.28125 156.527344 152.714844 C 157.621094 153.40625 158.570312 154.28125 159.535156 155.125 C 160.074219 155.597656 160.472656 156.195312 160.890625 156.78125 C 161.632812 157.835938 162.476562 158.804688 163.75 159.257812 L 163.773438 159.332031 L 163.761719 159.28125 C 162.921875 157.1875 161.332031 155.65625 159.855469 154.039062 Z M 138.203125 167.664062 C 139.929688 167.34375 141.6875 167.144531 143.339844 166.488281 C 143.691406 166.347656 144.050781 166.199219 144.425781 166.136719 C 146.683594 165.75 148.878906 165.105469 151.109375 164.585938 C 151.941406 164.394531 152.800781 164.3125 153.644531 164.179688 C 154.242188 164.082031 154.855469 164.042969 155.488281 163.765625 C 155.199219 163.410156 154.851562 163.425781 154.554688 163.386719 C 151.988281 163.058594 149.421875 163.089844 146.871094 163.5625 C 145.882812 163.75 144.9375 164.066406 144.035156 164.527344 C 143.613281 164.742188 143.1875 164.984375 142.730469 165.105469 C 141.078125 165.539062 139.722656 166.511719 138.335938 167.445312 C 138.273438 167.488281 138.257812 167.609375 138.222656 167.6875 C 138.214844 167.679688 138.207031 167.671875 138.203125 167.664062 Z M 123.703125 154.125 L 123.746094 154.117188 C 126.632812 153.828125 129.527344 153.660156 132.429688 153.695312 C 135.488281 153.730469 138.515625 154.042969 141.414062 155.105469 C 142.886719 155.644531 144.335938 156.25 145.785156 156.859375 C 146.523438 157.175781 147.265625 157.460938 148.058594 157.738281 C 148.042969 157.550781 148.066406 157.425781 148.019531 157.390625 C 146.90625 156.496094 145.777344 155.621094 144.539062 154.898438 C 142.753906 153.859375 140.875 153.085938 138.84375 152.675781 C 138.003906 152.507812 137.164062 152.332031 136.332031 152.140625 C 134.160156 151.648438 131.957031 151.628906 129.808594 152.0625 C 127.722656 152.480469 125.636719 153.011719 123.765625 154.117188 Z M 134.152344 155.800781 C 137.503906 156.21875 140.875 156.53125 144.183594 157.289062 C 144.550781 157.375 144.925781 157.417969 145.472656 157.515625 C 139.824219 154.554688 133.632812 153.789062 125.925781 154.875 C 128.667969 155.183594 131.414062 155.457031 134.152344 155.800781 Z M 148.78125 149.492188 C 149.183594 149.75 149.625 149.964844 149.964844 150.289062 C 152.289062 152.488281 155.050781 154.136719 157.472656 156.214844 C 158.542969 157.132812 159.816406 157.816406 161.058594 158.542969 C 160.492188 157.414062 159.863281 156.351562 158.925781 155.5 C 158.429688 155.054688 157.980469 154.542969 157.445312 154.15625 C 155.75 152.929688 154.085938 151.652344 152.226562 150.675781 C 151.132812 150.101562 150.078125 149.4375 148.890625 149.070312 C 148.664062 149 148.441406 148.929688 148.183594 148.847656 C 148.289062 149.210938 148.546875 149.339844 148.78125 149.492188 Z M 159.066406 175.773438 C 162.726562 175.503906 166.335938 174.910156 169.914062 174.09375 C 170.617188 173.933594 171.257812 173.625 171.902344 173.320312 C 172.148438 173.207031 172.460938 173.175781 172.566406 172.855469 C 172.53125 172.820312 172.492188 172.753906 172.464844 172.757812 C 170.679688 172.984375 168.878906 173.042969 167.097656 173.421875 C 165.386719 173.785156 163.660156 174.179688 161.898438 174.285156 C 161.222656 174.324219 160.589844 174.484375 159.972656 174.765625 C 159.375 175.035156 158.753906 175.246094 158.117188 175.492188 C 158.410156 175.878906 158.761719 175.796875 159.066406 175.773438 Z M 159.066406 175.773438 " fill-opacity="1" fill-rule="nonzero"/></g><g fill="#393535" fill-opacity="1"><g transform="translate(116.643791, 226.615708)"><g><path d="M 3.3125 0.21875 C 2.800781 0.21875 2.351562 0.132812 1.96875 -0.03125 C 1.59375 -0.207031 1.28125 -0.398438 1.03125 -0.609375 C 0.726562 -0.847656 0.472656 -1.125 0.265625 -1.4375 L 0.59375 -1.703125 C 0.769531 -1.429688 0.992188 -1.191406 1.265625 -0.984375 C 1.492188 -0.796875 1.773438 -0.628906 2.109375 -0.484375 C 2.453125 -0.335938 2.851562 -0.265625 3.3125 -0.265625 C 3.601562 -0.265625 3.867188 -0.304688 4.109375 -0.390625 C 4.347656 -0.484375 4.550781 -0.609375 4.71875 -0.765625 C 4.882812 -0.921875 5.007812 -1.097656 5.09375 -1.296875 C 5.1875 -1.503906 5.234375 -1.734375 5.234375 -1.984375 C 5.234375 -2.253906 5.125 -2.476562 4.90625 -2.65625 C 4.6875 -2.832031 4.40625 -2.992188 4.0625 -3.140625 C 3.726562 -3.285156 3.367188 -3.425781 2.984375 -3.5625 C 2.609375 -3.695312 2.25 -3.859375 1.90625 -4.046875 C 1.570312 -4.234375 1.296875 -4.457031 1.078125 -4.71875 C 0.859375 -4.988281 0.75 -5.320312 0.75 -5.71875 C 0.75 -5.976562 0.804688 -6.222656 0.921875 -6.453125 C 1.035156 -6.691406 1.207031 -6.898438 1.4375 -7.078125 C 1.664062 -7.265625 1.941406 -7.410156 2.265625 -7.515625 C 2.585938 -7.628906 2.953125 -7.6875 3.359375 -7.6875 C 3.773438 -7.6875 4.148438 -7.613281 4.484375 -7.46875 C 4.816406 -7.320312 5.097656 -7.164062 5.328125 -7 C 5.597656 -6.789062 5.832031 -6.5625 6.03125 -6.3125 L 5.71875 -6.03125 C 5.519531 -6.25 5.300781 -6.445312 5.0625 -6.625 C 4.851562 -6.769531 4.601562 -6.90625 4.3125 -7.03125 C 4.03125 -7.15625 3.710938 -7.21875 3.359375 -7.21875 C 3.109375 -7.21875 2.875 -7.175781 2.65625 -7.09375 C 2.445312 -7.007812 2.269531 -6.898438 2.125 -6.765625 C 1.976562 -6.628906 1.863281 -6.46875 1.78125 -6.28125 C 1.695312 -6.101562 1.65625 -5.914062 1.65625 -5.71875 C 1.65625 -5.4375 1.765625 -5.207031 1.984375 -5.03125 C 2.203125 -4.851562 2.476562 -4.691406 2.8125 -4.546875 C 3.15625 -4.398438 3.519531 -4.257812 3.90625 -4.125 C 4.289062 -3.988281 4.648438 -3.828125 4.984375 -3.640625 C 5.316406 -3.453125 5.59375 -3.226562 5.8125 -2.96875 C 6.03125 -2.707031 6.140625 -2.378906 6.140625 -1.984375 C 6.140625 -1.703125 6.078125 -1.425781 5.953125 -1.15625 C 5.828125 -0.894531 5.640625 -0.660156 5.390625 -0.453125 C 5.140625 -0.253906 4.835938 -0.09375 4.484375 0.03125 C 4.140625 0.15625 3.75 0.21875 3.3125 0.21875 Z M 3.3125 0.21875 "/></g></g></g><g fill="#393535" fill-opacity="1"><g transform="translate(125.164678, 226.615708)"><g><path d="M 2.71875 -6.953125 L 0.109375 -6.953125 L 0.109375 -7.484375 L 6.203125 -7.484375 L 6.09375 -6.953125 L 3.578125 -6.953125 L 3.578125 0 L 2.71875 0 Z M 2.71875 -6.953125 "/></g></g></g><g fill="#393535" fill-opacity="1"><g transform="translate(133.365291, 226.615708)"><g><path d="M 4.171875 0.21875 C 3.679688 0.21875 3.242188 0.144531 2.859375 0 C 2.472656 -0.144531 2.144531 -0.347656 1.875 -0.609375 C 1.601562 -0.878906 1.390625 -1.195312 1.234375 -1.5625 C 1.085938 -1.925781 1.015625 -2.332031 1.015625 -2.78125 L 1.015625 -7.484375 L 1.875 -7.484375 L 1.875 -2.78125 C 1.875 -2.40625 1.929688 -2.0625 2.046875 -1.75 C 2.160156 -1.445312 2.320312 -1.179688 2.53125 -0.953125 C 2.75 -0.734375 2.992188 -0.5625 3.265625 -0.4375 C 3.546875 -0.320312 3.847656 -0.265625 4.171875 -0.265625 C 4.492188 -0.265625 4.789062 -0.320312 5.0625 -0.4375 C 5.34375 -0.5625 5.585938 -0.734375 5.796875 -0.953125 C 6.003906 -1.179688 6.164062 -1.445312 6.28125 -1.75 C 6.40625 -2.0625 6.46875 -2.40625 6.46875 -2.78125 L 6.46875 -7.484375 L 7 -7.484375 L 7 -2.78125 C 7 -2.332031 6.925781 -1.925781 6.78125 -1.5625 C 6.632812 -1.195312 6.429688 -0.878906 6.171875 -0.609375 C 5.921875 -0.347656 5.625 -0.144531 5.28125 0 C 4.9375 0.144531 4.566406 0.21875 4.171875 0.21875 Z M 4.171875 0.21875 "/></g></g></g><g fill="#393535" fill-opacity="1"><g transform="translate(143.274027, 226.615708)"><g><path d="M 1.015625 -7.484375 L 3.15625 -7.484375 C 3.75 -7.484375 4.296875 -7.382812 4.796875 -7.1875 C 5.296875 -6.988281 5.722656 -6.722656 6.078125 -6.390625 C 6.441406 -6.054688 6.722656 -5.660156 6.921875 -5.203125 C 7.117188 -4.742188 7.21875 -4.253906 7.21875 -3.734375 C 7.21875 -3.210938 7.117188 -2.722656 6.921875 -2.265625 C 6.722656 -1.816406 6.441406 -1.425781 6.078125 -1.09375 C 5.722656 -0.757812 5.296875 -0.492188 4.796875 -0.296875 C 4.296875 -0.0976562 3.75 0 3.15625 0 L 1.015625 0 Z M 3.15625 -0.53125 C 3.613281 -0.53125 4.03125 -0.609375 4.40625 -0.765625 C 4.789062 -0.929688 5.125 -1.15625 5.40625 -1.4375 C 5.6875 -1.71875 5.90625 -2.050781 6.0625 -2.4375 C 6.226562 -2.832031 6.3125 -3.265625 6.3125 -3.734375 C 6.3125 -4.210938 6.226562 -4.644531 6.0625 -5.03125 C 5.90625 -5.425781 5.6875 -5.765625 5.40625 -6.046875 C 5.125 -6.328125 4.789062 -6.546875 4.40625 -6.703125 C 4.03125 -6.867188 3.613281 -6.953125 3.15625 -6.953125 L 1.875 -6.953125 L 1.875 -0.53125 Z M 3.15625 -0.53125 "/></g></g></g><g fill="#393535" fill-opacity="1"><g transform="translate(152.915863, 226.615708)"><g><path d="M 1.015625 -7.484375 L 1.875 -7.484375 L 1.875 0 L 1.015625 0 Z M 1.015625 -7.484375 "/></g></g></g><g fill="#393535" fill-opacity="1"><g transform="translate(157.700243, 226.615708)"><g><path d="M 4.375 0.21875 C 3.84375 0.21875 3.34375 0.117188 2.875 -0.078125 C 2.414062 -0.285156 2.007812 -0.566406 1.65625 -0.921875 C 1.3125 -1.273438 1.035156 -1.691406 0.828125 -2.171875 C 0.628906 -2.648438 0.53125 -3.171875 0.53125 -3.734375 C 0.53125 -4.296875 0.628906 -4.816406 0.828125 -5.296875 C 1.035156 -5.785156 1.3125 -6.203125 1.65625 -6.546875 C 2.007812 -6.898438 2.414062 -7.175781 2.875 -7.375 C 3.34375 -7.582031 3.84375 -7.6875 4.375 -7.6875 C 4.914062 -7.6875 5.414062 -7.582031 5.875 -7.375 C 6.34375 -7.175781 6.75 -6.898438 7.09375 -6.546875 C 7.445312 -6.203125 7.722656 -5.785156 7.921875 -5.296875 C 8.128906 -4.816406 8.234375 -4.296875 8.234375 -3.734375 C 8.234375 -3.171875 8.128906 -2.648438 7.921875 -2.171875 C 7.722656 -1.691406 7.445312 -1.273438 7.09375 -0.921875 C 6.75 -0.566406 6.34375 -0.285156 5.875 -0.078125 C 5.414062 0.117188 4.914062 0.21875 4.375 0.21875 Z M 4.375 -0.265625 C 4.757812 -0.265625 5.128906 -0.347656 5.484375 -0.515625 C 5.847656 -0.679688 6.164062 -0.914062 6.4375 -1.21875 C 6.707031 -1.519531 6.921875 -1.882812 7.078125 -2.3125 C 7.242188 -2.738281 7.328125 -3.210938 7.328125 -3.734375 C 7.328125 -4.253906 7.242188 -4.726562 7.078125 -5.15625 C 6.921875 -5.582031 6.707031 -5.945312 6.4375 -6.25 C 6.164062 -6.5625 5.847656 -6.800781 5.484375 -6.96875 C 5.128906 -7.132812 4.757812 -7.21875 4.375 -7.21875 C 4 -7.21875 3.628906 -7.132812 3.265625 -6.96875 C 2.910156 -6.800781 2.597656 -6.5625 2.328125 -6.25 C 2.054688 -5.945312 1.835938 -5.582031 1.671875 -5.15625 C 1.515625 -4.726562 1.4375 -4.253906 1.4375 -3.734375 C 1.4375 -3.210938 1.515625 -2.738281 1.671875 -2.3125 C 1.835938 -1.882812 2.054688 -1.519531 2.328125 -1.21875 C 2.597656 -0.914062 2.910156 -0.679688 3.265625 -0.515625 C 3.628906 -0.347656 4 -0.265625 4.375 -0.265625 Z M 4.375 -0.265625 "/></g></g></g><g fill="#393535" fill-opacity="1"><g transform="translate(167.004619, 242.507679)"><g><path d="M 5.402344 -32.789062 C 17.085938 10.929688 80.148438 10.679688 88.1875 -30.148438 L 87.183594 -30.402344 C 79.773438 7.035156 25.628906 6.910156 14.320312 -35.175781 C 9.046875 -54.773438 15.578125 -80.652344 37.183594 -86.429688 C 55.273438 -91.203125 70.601562 -77.761719 78.390625 -62.183594 L 79.519531 -62.183594 L 82.410156 -73.238281 C 71.605469 -85.925781 54.144531 -92.082031 36.933594 -87.433594 C 13.066406 -81.027344 -1.003906 -56.65625 5.402344 -32.789062 Z M 5.402344 -32.789062 "/></g></g></g></svg>