<svg width="464.5" height="73" viewBox="0 0 464.5 73" xmlns="http://www.w3.org/2000/svg"><g id="svgGroup" stroke-linecap="round" fill-rule="evenodd" font-size="9pt" stroke="#000" stroke-width="0.25mm" fill="#000" style="stroke:#000;stroke-width:0.25mm;fill:#000"><path d="M 40.3 39.7 L 40 4.3 L 51.9 4.3 L 51.9 72.1 L 42 72.1 L 19.2 36.5 Q 17.3 33.6 15.05 29.95 Q 12.8 26.3 10.8 23.2 Q 11.1 26.4 11.35 29.9 Q 11.6 33.4 11.6 36.6 L 11.9 72 L 0 72 L 0 4.1 L 9.3 4.1 L 32.8 39.3 Q 34.8 42.2 36.85 45.45 A 298.541 298.541 0 0 0 40.399 50.946 A 271.155 271.155 0 0 0 40.9 51.7 Q 40.7 48.5 40.5 45.25 Q 40.347 42.762 40.311 40.831 A 60.936 60.936 0 0 1 40.3 39.7 Z M 224.9 72 L 224.9 4.3 Q 225.579 4.3 227.95 4.253 A 868.153 868.153 0 0 0 228.1 4.25 Q 230.59 4.2 233.676 4.2 A 245.122 245.122 0 0 1 233.7 4.2 Q 236.8 4.2 239.9 4.15 Q 243 4.1 245 4.1 Q 256.756 4.1 262.49 8.46 A 14.246 14.246 0 0 1 263.1 8.95 A 15.818 15.818 0 0 1 268.484 18.677 A 23.342 23.342 0 0 1 268.8 22.6 A 19.731 19.731 0 0 1 267.791 28.99 A 17.717 17.717 0 0 1 265.9 32.9 A 13.925 13.925 0 0 1 261.35 37.244 Q 259.21 38.549 256.4 39.4 Q 259.2 41 261.4 43.8 A 35.698 35.698 0 0 1 263.441 46.7 Q 264.584 48.499 265.7 50.65 Q 267.661 54.431 269.708 59.345 A 162.996 162.996 0 0 1 270 60.05 Q 272.165 65.315 275.008 71.791 A 747.295 747.295 0 0 0 275.1 72 L 262.2 72 A 975.963 975.963 0 0 0 259.77 66.399 Q 257.844 62 256.25 58.5 Q 254.323 54.267 252.481 51.234 A 39.479 39.479 0 0 0 251.3 49.4 Q 249.311 46.5 247.082 44.905 A 11.778 11.778 0 0 0 246.15 44.3 A 11.704 11.704 0 0 0 241.933 42.858 A 15.252 15.252 0 0 0 239.7 42.7 L 236.8 42.7 L 236.8 72 L 224.9 72 Z M 408.1 46.6 L 408.1 22.2 L 419.5 22.2 L 419.5 47.9 Q 419.5 53.9 420.25 57.95 A 65.038 65.038 0 0 0 420.783 60.551 Q 421.046 61.706 421.326 62.693 A 27.239 27.239 0 0 0 421.9 64.5 Q 422.679 66.624 423.557 68.096 A 11.636 11.636 0 0 0 424.3 69.2 L 415.4 72.8 A 10.574 10.574 0 0 1 414.147 71.418 A 14.17 14.17 0 0 1 413.2 70 Q 412.588 68.928 411.946 67.476 A 43.961 43.961 0 0 1 411.55 66.55 Q 410.7 64.5 410.4 61.7 A 20.303 20.303 0 0 1 407.759 66.038 A 15.238 15.238 0 0 1 402.8 70.1 Q 397.9 72.6 392.6 72.6 Q 384.7 72.6 381.35 68 A 16.002 16.002 0 0 1 378.959 62.989 Q 378 59.682 378 55.4 L 378 22.2 L 389.4 22.2 L 389.4 55.2 A 19.204 19.204 0 0 0 389.546 57.649 Q 389.869 60.15 390.9 61.8 A 4.862 4.862 0 0 0 393.955 63.966 Q 394.818 64.186 395.86 64.199 A 10.616 10.616 0 0 0 396 64.2 Q 398.2 64.2 400.35 62.95 A 12.38 12.38 0 0 0 402.97 60.888 A 15.776 15.776 0 0 0 404.25 59.4 Q 406 57.1 407.05 53.85 A 21.426 21.426 0 0 0 407.94 49.611 A 27.377 27.377 0 0 0 408.1 46.6 Z M 132.7 72 L 121.4 72 L 121.4 39.7 A 19.196 19.196 0 0 0 121.223 37.008 Q 120.884 34.624 119.9 32.95 Q 118.4 30.4 114.8 30.4 A 9.281 9.281 0 0 0 110.501 31.471 A 10.862 10.862 0 0 0 110.35 31.55 A 11.361 11.361 0 0 0 107.606 33.628 A 14.164 14.164 0 0 0 106.5 34.9 A 16.055 16.055 0 0 0 104.752 37.762 A 21.124 21.124 0 0 0 103.75 40.25 A 20.214 20.214 0 0 0 102.86 44.368 A 25.956 25.956 0 0 0 102.7 47.3 L 102.7 72 L 91.3 72 L 91.3 46.8 A 74.622 74.622 0 0 0 91.189 42.595 Q 91.078 40.632 90.856 38.94 A 34.392 34.392 0 0 0 90.5 36.75 A 70.443 70.443 0 0 0 89.938 34.149 Q 89.664 32.995 89.38 32.008 A 29.383 29.383 0 0 0 88.8 30.2 Q 87.7 27.3 86.4 25.5 L 95.4 21.9 Q 96.334 22.927 97.267 24.39 A 26.273 26.273 0 0 1 97.4 24.6 Q 98.052 25.741 98.703 27.312 A 37.926 37.926 0 0 1 99 28.05 A 23.508 23.508 0 0 1 99.785 30.457 A 31.052 31.052 0 0 1 100.3 32.7 A 20.498 20.498 0 0 1 102.903 28.234 A 15.524 15.524 0 0 1 107.8 24.05 Q 112.7 21.4 118.1 21.4 A 20.04 20.04 0 0 1 122.297 21.81 Q 124.808 22.349 126.673 23.594 A 10.34 10.34 0 0 1 129.25 26.05 A 16.282 16.282 0 0 1 131.81 31.415 Q 132.7 34.589 132.7 38.6 L 132.7 72 Z M 354.9 22.2 L 366.5 22.2 L 366.7 23 Q 366.789 23.805 366.959 25.051 A 168.56 168.56 0 0 0 367 25.35 A 49.29 49.29 0 0 1 367.177 26.798 Q 367.259 27.559 367.33 28.406 A 82.022 82.022 0 0 1 367.35 28.65 Q 367.5 30.5 367.5 32.4 A 124.806 124.806 0 0 1 367.268 40.24 Q 366.881 46.369 365.85 51.15 Q 364.498 57.416 362.006 61.737 A 23.627 23.627 0 0 1 360.85 63.55 Q 357.5 68.3 352.35 70.4 Q 347.434 72.405 340.832 72.496 A 45.835 45.835 0 0 1 340.2 72.5 A 21.556 21.556 0 0 1 336.116 72.14 Q 333.811 71.695 332.058 70.698 A 9.864 9.864 0 0 1 328.95 67.95 A 15.7 15.7 0 0 1 326.573 63.023 Q 325.935 60.851 325.715 58.247 A 33.894 33.894 0 0 1 325.6 55.4 L 325.6 22.2 L 337 22.2 L 337 55.1 A 19.323 19.323 0 0 0 337.177 57.799 Q 337.378 59.221 337.807 60.4 A 9.465 9.465 0 0 0 338.5 61.9 A 4.987 4.987 0 0 0 342.101 64.371 A 8.25 8.25 0 0 0 343.6 64.5 A 7.656 7.656 0 0 0 349.295 62.127 A 9.405 9.405 0 0 0 349.6 61.8 A 16.383 16.383 0 0 0 351.809 58.577 Q 352.722 56.857 353.4 54.75 Q 354.8 50.4 355.4 44.85 Q 356 39.3 356 33.6 Q 356 31.5 355.85 29.45 A 54.575 54.575 0 0 0 355.687 27.627 Q 355.583 26.65 355.45 25.8 Q 355.226 24.369 355.123 23.418 A 24.799 24.799 0 0 1 355.1 23.2 L 354.9 22.2 Z M 463.6 24.9 L 460.2 32.7 Q 458.2 31.8 456.2 31.1 A 45.86 45.86 0 0 0 454.177 30.441 A 58.531 58.531 0 0 0 452.45 29.95 A 15.705 15.705 0 0 0 448.775 29.405 A 14.601 14.601 0 0 0 448.4 29.4 A 8.048 8.048 0 0 0 446.418 29.634 A 6.315 6.315 0 0 0 444.45 30.5 A 3.554 3.554 0 0 0 442.849 33.077 A 5.182 5.182 0 0 0 442.8 33.8 A 7.372 7.372 0 0 0 445.282 39.287 Q 446.439 40.391 448.135 41.333 A 23.591 23.591 0 0 0 451.1 42.7 A 54.447 54.447 0 0 1 454.398 44.098 A 42.997 42.997 0 0 1 456.7 45.25 Q 459.2 46.6 460.95 48.4 Q 462.7 50.2 463.6 52.55 Q 464.444 54.753 464.496 57.704 A 22.196 22.196 0 0 1 464.5 58.1 Q 464.5 60.9 463.35 63.6 Q 462.2 66.3 459.95 68.4 A 15.886 15.886 0 0 1 456.245 70.957 A 19.521 19.521 0 0 1 454.45 71.75 A 18.493 18.493 0 0 1 450.173 72.81 A 23.913 23.913 0 0 1 447.1 73 Q 443.8 73 440.6 72.25 Q 437.4 71.5 434.85 70.6 Q 432.307 69.703 430.808 68.905 A 14.785 14.785 0 0 1 430.8 68.9 L 429.3 68.2 L 433 59.8 L 434.3 60.5 A 20.827 20.827 0 0 0 435.373 61.114 Q 436.35 61.638 437.6 62.2 A 41.258 41.258 0 0 0 440.734 63.454 A 47.817 47.817 0 0 0 441.9 63.85 A 16.83 16.83 0 0 0 443.836 64.363 Q 445.031 64.6 446.1 64.6 A 14.044 14.044 0 0 0 447.926 64.49 Q 450.078 64.207 451.3 63.2 Q 453 61.8 453 59.5 Q 453 56.9 451.15 54.75 A 10.144 10.144 0 0 0 449.177 53.013 Q 448.195 52.34 446.962 51.77 A 20.725 20.725 0 0 0 445.6 51.2 A 47.818 47.818 0 0 1 441.312 49.359 Q 436.879 47.173 434.55 44.6 Q 431.2 40.9 431.2 35 Q 431.2 32.2 432.5 29.65 Q 433.8 27.1 436.05 25.15 A 15.934 15.934 0 0 1 440.084 22.622 A 18.972 18.972 0 0 1 441.4 22.1 A 19.366 19.366 0 0 1 446.754 21.04 A 22.679 22.679 0 0 1 448.1 21 Q 451 21 453.8 21.6 Q 456.6 22.2 458.8 23 A 59.639 59.639 0 0 1 461.894 24.164 A 49.057 49.057 0 0 1 463.6 24.9 Z M 314.2 61 L 317.2 68.1 A 41.37 41.37 0 0 1 313.075 69.882 A 47.048 47.048 0 0 1 311.6 70.4 A 39.936 39.936 0 0 1 308.987 71.2 Q 307.604 71.575 306.048 71.906 A 66.039 66.039 0 0 1 305.6 72 A 34.595 34.595 0 0 1 300.043 72.667 A 39.876 39.876 0 0 1 298.4 72.7 A 32.194 32.194 0 0 1 293.968 72.411 Q 291.598 72.082 289.594 71.375 A 18.166 18.166 0 0 1 288.5 70.95 A 17.88 17.88 0 0 1 283.765 68.029 A 16.207 16.207 0 0 1 281.8 66 A 19.295 19.295 0 0 1 278.786 60.729 A 23.786 23.786 0 0 1 278 58.3 A 34.788 34.788 0 0 1 277.03 52.921 A 44.816 44.816 0 0 1 276.8 48.3 A 41.196 41.196 0 0 1 277.2 42.417 A 29.81 29.81 0 0 1 278.65 36.5 A 26.975 26.975 0 0 1 281.092 31.416 A 22.012 22.012 0 0 1 283.75 27.95 Q 287 24.5 291.4 22.75 A 25.08 25.08 0 0 1 299.636 21.028 A 28.991 28.991 0 0 1 300.9 21 A 30.722 30.722 0 0 1 304.272 21.175 Q 305.91 21.356 307.318 21.726 A 16.238 16.238 0 0 1 308.55 22.1 A 16.617 16.617 0 0 1 311.25 23.307 A 12.365 12.365 0 0 1 313.7 25.1 Q 315.7 27 316.65 29.6 A 15.869 15.869 0 0 1 317.577 34.273 A 18.381 18.381 0 0 1 317.6 35.2 A 12.813 12.813 0 0 1 315.731 41.834 A 15.288 15.288 0 0 1 315.6 42.05 A 16.865 16.865 0 0 1 312.319 45.886 A 21.911 21.911 0 0 1 309.85 47.75 A 27.553 27.553 0 0 1 305.428 50.071 A 37.623 37.623 0 0 1 300.8 51.65 A 42.399 42.399 0 0 1 294.473 52.849 A 56.007 56.007 0 0 1 288.9 53.2 A 25.655 25.655 0 0 0 289.619 56.773 A 23.012 23.012 0 0 0 289.85 57.55 A 11.28 11.28 0 0 0 291.128 60.292 A 10.228 10.228 0 0 0 291.75 61.15 A 8.396 8.396 0 0 0 294.276 63.24 A 10.148 10.148 0 0 0 295 63.6 Q 296.648 64.342 298.976 64.472 A 18.313 18.313 0 0 0 300 64.5 A 22.031 22.031 0 0 0 302.793 64.315 A 27.546 27.546 0 0 0 304.7 64 Q 307.2 63.5 309.3 62.8 Q 311.8 62 314.2 61 Z M 185.5 24.3 L 185.5 47.9 Q 185.5 53.9 186.25 57.95 A 65.038 65.038 0 0 0 186.783 60.551 Q 187.046 61.706 187.326 62.693 A 27.239 27.239 0 0 0 187.9 64.5 Q 188.679 66.624 189.557 68.096 A 11.636 11.636 0 0 0 190.3 69.2 L 181.4 72.8 A 15.356 15.356 0 0 1 179.853 70.98 A 18.957 18.957 0 0 1 179 69.7 Q 178.1 68.1 177.3 65.85 A 16.077 16.077 0 0 1 176.683 63.559 Q 176.458 62.414 176.346 61.111 A 28.401 28.401 0 0 1 176.3 60.5 A 22.941 22.941 0 0 1 174.737 64.585 Q 173.194 67.644 170.85 69.55 Q 167.539 72.243 162.164 72.558 A 24.984 24.984 0 0 1 160.7 72.6 A 21.237 21.237 0 0 1 156.697 72.241 A 15.624 15.624 0 0 1 152.55 70.85 Q 149.1 69.1 146.8 65.85 A 20.265 20.265 0 0 1 144.492 61.515 A 26.556 26.556 0 0 1 143.4 58 A 39.285 39.285 0 0 1 142.511 52.509 A 50.754 50.754 0 0 1 142.3 47.8 A 32.568 32.568 0 0 1 143.054 40.685 A 28.253 28.253 0 0 1 144.05 37.25 A 26.204 26.204 0 0 1 147.034 31.342 A 23.158 23.158 0 0 1 148.95 28.9 Q 152.1 25.4 156.5 23.4 A 22.525 22.525 0 0 1 164.244 21.471 A 26.829 26.829 0 0 1 166.2 21.4 Q 169.2 21.4 172.45 21.85 Q 175.7 22.3 178.5 22.8 Q 180.644 23.183 182.289 23.537 A 64.924 64.924 0 0 1 183.25 23.75 A 208.364 208.364 0 0 1 183.923 23.907 Q 185.077 24.177 185.415 24.274 A 2.236 2.236 0 0 1 185.5 24.3 Z M 64.4 61.1 L 64.4 22.2 L 75.8 22.2 L 75.8 60.1 A 11.822 11.822 0 0 0 75.841 61.126 Q 75.97 62.594 76.5 63.2 Q 77.147 63.939 78.391 63.996 A 4.629 4.629 0 0 0 78.6 64 L 79.45 64 Q 79.9 64 80.3 63.9 Q 80.672 63.9 81.13 63.814 A 6.465 6.465 0 0 0 81.2 63.8 L 82.4 71 Q 81.865 71.306 81.096 71.553 A 11.511 11.511 0 0 1 80.6 71.7 A 9.529 9.529 0 0 1 79.862 71.911 Q 79.455 72.011 78.982 72.097 A 20.084 20.084 0 0 1 78.35 72.2 A 17.747 17.747 0 0 1 76.915 72.35 Q 76.152 72.4 75.3 72.4 Q 70 72.4 67.2 69.25 A 10.875 10.875 0 0 1 64.647 63.906 A 15.272 15.272 0 0 1 64.4 61.1 Z M 174.1 44.9 L 174.1 30.5 Q 173.334 30.271 171.983 29.982 A 70.983 70.983 0 0 0 171.1 29.8 A 22.734 22.734 0 0 0 169.427 29.527 Q 168.56 29.42 167.784 29.403 A 13.228 13.228 0 0 0 167.5 29.4 Q 163.7 29.4 161.25 30.7 Q 158.8 32 157.3 34.3 A 13.553 13.553 0 0 0 155.836 37.349 A 17.726 17.726 0 0 0 155.2 39.8 A 34.622 34.622 0 0 0 154.699 43.812 A 43.722 43.722 0 0 0 154.6 46.8 Q 154.6 50.3 154.8 53.5 Q 155 56.7 155.85 59.2 A 11.127 11.127 0 0 0 156.737 61.187 A 8.066 8.066 0 0 0 158.3 63.15 A 5.41 5.41 0 0 0 160.73 64.396 Q 161.588 64.6 162.6 64.6 A 7.042 7.042 0 0 0 166.803 63.204 A 8.932 8.932 0 0 0 167.2 62.9 Q 169.3 61.2 170.85 58.45 A 22.379 22.379 0 0 0 172.514 54.7 A 28.013 28.013 0 0 0 173.25 52.15 Q 174.1 48.6 174.1 44.9 Z M 236.8 12.6 L 236.8 34 L 244.5 34 Q 248.375 34 251.029 32.803 A 9.462 9.462 0 0 0 253.15 31.5 A 8.031 8.031 0 0 0 255.887 26.993 A 12.565 12.565 0 0 0 256.2 24.1 Q 256.2 21.9 255.6 19.8 Q 255 17.7 253.55 16.1 A 8.886 8.886 0 0 0 251.539 14.468 A 12.144 12.144 0 0 0 249.65 13.55 A 12.607 12.607 0 0 0 247.453 12.935 Q 245.697 12.6 243.5 12.6 L 236.8 12.6 Z M 294.715 30.234 A 7.287 7.287 0 0 0 294.55 30.35 Q 292.4 31.9 291.1 34.35 A 17.888 17.888 0 0 0 289.619 38.182 A 21.414 21.414 0 0 0 289.25 39.85 Q 288.7 42.9 288.6 46 Q 292.369 45.843 295.244 45.162 A 21.973 21.973 0 0 0 296.75 44.75 A 24.17 24.17 0 0 0 299.243 43.824 Q 300.466 43.287 301.459 42.657 A 12.764 12.764 0 0 0 302.2 42.15 A 12.893 12.893 0 0 0 303.716 40.85 Q 304.504 40.053 305.024 39.198 A 7.511 7.511 0 0 0 305.25 38.8 A 8.441 8.441 0 0 0 305.991 36.888 A 7.004 7.004 0 0 0 306.2 35.2 A 8.037 8.037 0 0 0 305.961 33.187 A 5.788 5.788 0 0 0 304.5 30.55 A 5.683 5.683 0 0 0 301.112 28.875 A 7.972 7.972 0 0 0 300 28.8 Q 296.826 28.8 294.715 30.234 Z M 70.3 0 Q 73.5 0 75.2 1.9 A 6.558 6.558 0 0 1 76.766 5.2 A 9.142 9.142 0 0 1 76.9 6.8 Q 76.9 9.8 75.15 11.8 A 5.598 5.598 0 0 1 72.318 13.519 Q 71.405 13.765 70.315 13.796 A 11.174 11.174 0 0 1 70 13.8 A 8.415 8.415 0 0 1 67.971 13.57 A 5.651 5.651 0 0 1 65.05 11.85 A 6.797 6.797 0 0 1 63.305 7.404 A 8.743 8.743 0 0 1 63.3 7.1 A 9.007 9.007 0 0 1 63.589 4.763 A 6.811 6.811 0 0 1 65.05 2 A 5.55 5.55 0 0 1 67.745 0.33 Q 68.666 0.062 69.777 0.012 A 11.572 11.572 0 0 1 70.3 0 Z" vector-effect="non-scaling-stroke"/></g></svg>